<?xml version="1.0" encoding="UTF-8" standalone="no"?>
<!-- Created with Inkscape (http://www.inkscape.org/) -->

<svg
   xmlns:dc="http://purl.org/dc/elements/1.1/"
   xmlns:cc="http://creativecommons.org/ns#"
   xmlns:rdf="http://www.w3.org/1999/02/22-rdf-syntax-ns#"
   xmlns:svg="http://www.w3.org/2000/svg"
   xmlns="http://www.w3.org/2000/svg"
   xmlns:sodipodi="http://sodipodi.sourceforge.net/DTD/sodipodi-0.dtd"
   xmlns:inkscape="http://www.inkscape.org/namespaces/inkscape"
   width="744.09448819"
   height="1052.3622047"
   id="svg2"
   version="1.1"
   inkscape:version="0.48.2 r9819"
   sodipodi:docname="frankenparts.svg">
  <defs
     id="defs4" />
  <sodipodi:namedview
     id="base"
     pagecolor="#ffffff"
     bordercolor="#666666"
     borderopacity="1.0"
     inkscape:pageopacity="0.0"
     inkscape:pageshadow="2"
     inkscape:zoom="0.49497475"
     inkscape:cx="447.85714"
     inkscape:cy="574.29497"
     inkscape:document-units="px"
     inkscape:current-layer="layer1"
     showgrid="false"
     showguides="true"
     inkscape:guide-bbox="true"
     inkscape:window-width="1440"
     inkscape:window-height="852"
     inkscape:window-x="0"
     inkscape:window-y="0"
     inkscape:window-maximized="1" />
  <metadata
     id="metadata7">
    <rdf:RDF>
      <cc:Work
         rdf:about="">
        <dc:format>image/svg+xml</dc:format>
        <dc:type
           rdf:resource="http://purl.org/dc/dcmitype/StillImage" />
        <dc:title></dc:title>
      </cc:Work>
    </rdf:RDF>
  </metadata>
  <g
     inkscape:label="Layer 1"
     inkscape:groupmode="layer"
     id="layer1">
    <g
       id="g3797"
       transform="matrix(1.0889443,0,0,0.81213954,209.33665,-222.44034)">
      <rect
         ry="5.171525"
         rx="3.7101204"
         y="353.79074"
         x="271.33295"
         height="217.14285"
         width="201.42857"
         id="rect2985"
         style="fill:#025200;fill-opacity:1;stroke:none" />
      <path
         sodipodi:nodetypes="ssscccccccccccss"
         inkscape:connector-curvature="0"
         id="rect3758"
         d="m 275.37307,353.79074 193.34835,0 c 2.23822,0 4.04011,1.8732 4.04011,4.2 l 0,81.6 -21.07143,-37.85714 -11.42857,37.85714 -11.78571,-23.21429 -27.14286,23.21429 -20.71429,-41.42857 -45.71428,41.42857 -17.14286,-47.85714 -22.85714,47.85714 -13.92857,-43.92857 -9.64286,43.92857 0,-81.6 c 0,-2.3268 1.80189,-4.2 4.04011,-4.2 z"
         style="fill:#000000;fill-opacity:1;stroke:none" />
      <path
         transform="translate(120.61867,-4.2857143)"
         d="m 242.14286,472.36218 c 0,6.70632 -9.9137,12.14286 -22.14286,12.14286 -12.22916,0 -22.14286,-5.43654 -22.14286,-12.14286 0,-6.70631 9.9137,-12.14285 22.14286,-12.14285 12.22916,0 22.14286,5.43654 22.14286,12.14285 z"
         sodipodi:ry="12.142858"
         sodipodi:rx="22.142857"
         sodipodi:cy="472.36218"
         sodipodi:cx="220"
         id="path3761"
         style="fill:#ffff00;fill-opacity:1;stroke:none"
         sodipodi:type="arc" />
      <path
         sodipodi:type="arc"
         style="fill:#ffff00;fill-opacity:1;stroke:none"
         id="path3763"
         sodipodi:cx="220"
         sodipodi:cy="472.36218"
         sodipodi:rx="22.142857"
         sodipodi:ry="12.142858"
         d="m 242.14286,472.36218 c 0,6.70632 -9.9137,12.14286 -22.14286,12.14286 -12.22916,0 -22.14286,-5.43654 -22.14286,-12.14286 0,-6.70631 9.9137,-12.14285 22.14286,-12.14285 12.22916,0 22.14286,5.43654 22.14286,12.14285 z"
         transform="translate(183.47581,-4.2857143)" />
      <path
         inkscape:connector-curvature="0"
         id="path3769"
         d="m 371.49434,477.56926 -8.78457,32.4096 18.67494,-0.34335"
         style="fill:none;stroke:#000000;stroke-width:4.9000001;stroke-linecap:butt;stroke-linejoin:miter;stroke-miterlimit:4;stroke-opacity:1;stroke-dasharray:none" />
      <path
         inkscape:connector-curvature="0"
         id="path3771"
         d="m 312.04724,543.36218 0,-12.14286 120,0 0,10.71429"
         style="fill:none;stroke:#000000;stroke-width:8.10000038;stroke-linecap:butt;stroke-linejoin:miter;stroke-miterlimit:4;stroke-opacity:1;stroke-dasharray:none" />
      <rect
         style="fill:#025200;fill-opacity:1;stroke:none"
         id="rect3773"
         width="92.857147"
         height="64.999992"
         x="325.61865"
         y="557.64789" />
      <g
         transform="matrix(1.4239766,0,0,1.4239766,77.272344,-387.68279)"
         id="g3781">
        <rect
           style="fill:#000000;fill-opacity:1;stroke:none"
           id="rect3777"
           width="7.1428556"
           height="16.84729"
           x="161.42857"
           y="680.2193" />
        <rect
           y="-174.85223"
           x="685.07153"
           height="8.2758617"
           width="7.1428556"
           id="rect3779"
           style="fill:#000000;fill-opacity:1;stroke:none"
           transform="matrix(0,1,-1,0,0,0)" />
      </g>
      <g
         id="g3785"
         transform="matrix(-1.4239766,0,0,1.4239766,666.98548,-387.68279)">
        <rect
           y="680.2193"
           x="161.42857"
           height="16.84729"
           width="7.1428556"
           id="rect3787"
           style="fill:#000000;fill-opacity:1;stroke:none" />
        <rect
           transform="matrix(0,1,-1,0,0,0)"
           style="fill:#000000;fill-opacity:1;stroke:none"
           id="rect3789"
           width="7.1428556"
           height="8.2758617"
           x="685.07153"
           y="-174.85223" />
      </g>
      <path
         sodipodi:nodetypes="ccccccc"
         inkscape:connector-curvature="0"
         id="path3793"
         d="m 258.57143,596.64789 38.62156,-0.58824 -12.03426,-4.70587 21.26984,-4.70589 -33.86382,3.52941 9.79532,1.76471 z"
         style="fill:#656565;fill-opacity:1;stroke:none" />
      <path
         style="fill:#656565;fill-opacity:1;stroke:none"
         d="m 437.85714,586.64789 38.62156,0.58824 -12.03426,4.70587 21.26984,4.70589 -33.86382,-3.52941 9.79532,-1.76471 z"
         id="path3795"
         inkscape:connector-curvature="0"
         sodipodi:nodetypes="ccccccc" />
    </g>
    <text
       xml:space="preserve"
       style="font-size:57.65537262px;font-style:normal;font-variant:normal;font-weight:normal;font-stretch:normal;text-align:center;line-height:278.99999619%;letter-spacing:0px;word-spacing:0px;text-anchor:middle;fill:#000000;fill-opacity:1;stroke:none;font-family:d puntillas B to tiptoe;-inkscape-font-specification:d puntillas B to tiptoe"
       x="251.52498"
       y="105.13739"
       id="text3814"
       sodipodi:linespacing="279%"><tspan
         sodipodi:role="line"
         id="tspan3816"
         x="251.52498"
         y="105.13739">FrankenParts</tspan></text>
  </g>
</svg>
